<?xml version="1.0" encoding="UTF-8" standalone="no"?>
<!DOCTYPE svg PUBLIC "-//W3C//DTD SVG 1.1//EN" "http://www.w3.org/Graphics/SVG/1.1/DTD/svg11.dtd">
<svg version="1.1" xmlns="http://www.w3.org/2000/svg" xmlns:xlink="http://www.w3.org/1999/xlink" preserveAspectRatio="xMidYMid meet" viewBox="0 0 640 640" width="512" height="512"><defs><path d="M304.01 115.48C294.58 115.48 279.15 115.48 269.72 115.48C267.08 115.48 245.88 115.48 243.23 115.48C233.81 115.48 220.3 120.23 213.23 126.02C212.85 126.34 209.81 128.83 209.43 129.14C202.35 134.94 196.56 146.87 196.56 155.63C196.56 156.45 196.56 160.5 196.56 167.81L196.56 170.45C196.56 395.74 196.56 520.89 196.56 545.93C196.56 554.69 204.28 561.87 213.71 561.87C243.52 561.87 482.06 561.87 511.87 561.87C521.31 561.87 529.02 554.69 529.02 545.93C529.02 508.11 529.02 205.62 529.02 167.81C529.02 159.03 521.31 151.86 511.87 151.86C491.94 151.86 332.5 151.86 312.56 151.86C312.56 146.05 307.5 141.35 301.27 141.35C295.04 141.35 290 146.05 290 151.86C290 152.14 290 153.51 290 155.98L290 261.3L261.6 235.51L237.03 261.3L237.03 151.85C223.04 151.85 215.26 151.85 213.71 151.85C213.58 151.85 213.47 151.88 213.35 151.89C214.58 150.58 220.72 144.03 231.79 132.24L286.86 132.24L541.14 132.24L541.14 530.8C541.31 530.8 541.4 530.8 541.42 530.8C550.84 530.8 558.56 523.62 558.56 514.86C558.56 476.51 558.56 169.77 558.56 131.43C558.57 122.65 550.85 115.48 541.43 115.48C493.94 115.48 327.75 115.48 304.01 115.48Z" id="ifHpA2R2Z"></path><path d="M280.85 540.62L280.85 357.27L221.19 505.54L209.25 505.54L209.25 439.36L280.85 274.1L324.97 274.1L324.97 540.62L280.85 540.62Z" id="a5rdivc20"></path><path d="M436.55 274.1L436.55 506.61L558.56 506.61L558.56 539.36L392.64 539.36L392.64 274.1L436.55 274.1Z" id="aqax4nAfv"></path><path d="M196.56 504.28L184.63 504.28L124.96 356.02L124.96 539.36L80.84 539.36L80.84 272.84L124.96 272.84L196.56 438.1L196.56 504.28Z" id="a2KGfVgGxS"></path></defs><g><g><g><use xlink:href="#ifHpA2R2Z" opacity="1" fill="#3cce7b" fill-opacity="1"></use><g><use xlink:href="#ifHpA2R2Z" opacity="1" fill-opacity="0" stroke="#000000" stroke-width="1" stroke-opacity="0"></use></g></g><g><use xlink:href="#a5rdivc20" opacity="1" fill="#333333" fill-opacity="1"></use><g><use xlink:href="#a5rdivc20" opacity="1" fill-opacity="0" stroke="#000000" stroke-width="1" stroke-opacity="0"></use></g></g><g><use xlink:href="#aqax4nAfv" opacity="1" fill="#333333" fill-opacity="1"></use><g><use xlink:href="#aqax4nAfv" opacity="1" fill-opacity="0" stroke="#000000" stroke-width="1" stroke-opacity="0"></use></g></g><g><use xlink:href="#a2KGfVgGxS" opacity="1" fill="#333333" fill-opacity="1"></use><g><use xlink:href="#a2KGfVgGxS" opacity="1" fill-opacity="0" stroke="#000000" stroke-width="1" stroke-opacity="0"></use></g></g></g></g></svg>